<svg width="35" height="35" viewBox="0 0 35 35" fill="none" xmlns="http://www.w3.org/2000/svg">
<path d="M1.33301 17.333C1.33301 19.4342 1.74686 21.5147 2.55094 23.4559C3.35501 25.3972 4.53356 27.161 6.0193 28.6467C7.50504 30.1325 9.26886 31.311 11.2101 32.1151C13.1513 32.9192 15.2319 33.333 17.333 33.333C19.4342 33.333 21.5147 32.9192 23.4559 32.1151C25.3972 31.311 27.161 30.1325 28.6467 28.6467C30.1325 27.161 31.311 25.3972 32.1151 23.4559C32.9192 21.5147 33.333 19.4342 33.333 17.333C33.333 13.0895 31.6473 9.01988 28.6467 6.0193C25.6461 3.01872 21.5765 1.33301 17.333 1.33301C13.0895 1.33301 9.01988 3.01872 6.0193 6.0193C3.01872 9.01988 1.33301 13.0895 1.33301 17.333Z" stroke="#02C551" stroke-width="2.66667" stroke-linecap="round" stroke-linejoin="round"/>
<path d="M17.333 8.44434V17.3332L22.6663 22.6666" stroke="#02C551" stroke-width="2.66667" stroke-linecap="round" stroke-linejoin="round"/>
</svg>
